<?xml version="1.0" encoding="utf-8"?>
<!-- Generator: Adobe Illustrator 26.0.1, SVG Export Plug-In . SVG Version: 6.00 Build 0)  -->
<svg version="1.1" id="Layer_1" xmlns="http://www.w3.org/2000/svg" xmlns:xlink="http://www.w3.org/1999/xlink" x="0px" y="0px"
	 viewBox="0 0 509.4 396.9" style="enable-background:new 0 0 509.4 396.9;" xml:space="preserve">
<style type="text/css">
	.st0{fill:#F5F5F7;}
</style>
<path class="st0" d="M254.7,47.1c22.7,0,41.7,17.9,55.6,46.9c1.5,3.4,2.9,6.9,4.4,11c4.4-0.7,8.8-2.1,13.2-2.8
	c35.8-5.5,63.6-1.4,76,15.2c11.7,15.9,5.1,40-16.1,64.8c-5.1,5.5-10.2,11.7-16.1,16.5c5.8,5.5,11,11,16.1,16.5
	c21.2,25.5,27.8,49,15.4,65.5c-12.4,15.9-40.2,20.7-76,14.5c-4.4-0.7-8-1.4-12.4-2.8c-1.5,3.4-2.9,6.9-4.4,10.3
	c-13.9,29-32.9,46.9-55.6,46.9s-42.4-17.9-55.6-46.2c-1.5-3.4-2.9-6.9-4.4-11c-4.4,0.7-8.8,2.1-13.2,2.8c-35.8,5.5-63.6,1.4-76-14.5
	c-11.7-15.9-5.1-40,16.1-65.5c5.1-5.5,10.2-11.7,16.1-16.5c-5.8-5.5-11-11-15.4-17.2c-21.2-25.5-27.8-49-15.4-65.5
	c12.4-15.9,40.2-20.7,76-14.5c4.4,0.7,8,1.4,12.4,2.8c1.5-3.4,2.9-6.9,4.4-10.3C213,65,232,47.1,254.7,47.1z M254,184.3
	c5.1-4.8,8.8-8.3,16.8-9.7c15.4-1.4,28.5,11.7,21.2,24.8c-5.1,8.3-19,18.6-27.1,25.5l-11,9.7l-9.5-7.6c-11-9.7-29.2-20.7-30-35.2
	c-0.7-10.3,8.8-16.5,19.7-16.5C243.7,175.4,248.1,179.5,254,184.3L254,184.3z M361.4,208.4c-10.2,9-21.2,16.5-32.2,24.1
	c-1.5,15.9-5.1,31.7-9.5,46.9c3.7,0.7,7.3,1.4,11,2.1c29.2,4.8,51.2,2.8,60-8.3c8-11,2.2-29-15.4-50.3
	C370.2,218.1,365.8,213.3,361.4,208.4L361.4,208.4z M147.9,188.5c10.2-9,21.2-16.5,32.2-24.1c1.5-15.9,5.1-31.7,9.5-46.9
	c-3.7-0.7-7.3-1.4-11-2.1c-29.2-4.8-51.2-2.8-60,8.3s-2.2,29,15.4,50.3C139.2,178.1,143.6,183.6,147.9,188.5L147.9,188.5z
	 M299.3,289.1c-15.4-4.1-30.7-9.7-45.3-15.9c-14.6,6.2-29.2,11-44.6,15.2c1.5,3.4,2.9,6.9,4.4,9.7c11,23.4,25.6,37.9,40.9,37.9
	s30-14.5,40.9-37.9C297.1,295.3,298.6,291.9,299.3,289.1L299.3,289.1z M237.1,265c-8-3.4-16.1-7.6-23.4-12.4l0,0
	c-5.1-2.8-10.2-5.5-15.4-9c1.5,10.3,4.4,21.4,7.3,31.7C215.9,272.6,226.9,269.1,237.1,265L237.1,265z M180.8,232.6
	c-11.7-7.6-21.9-15.9-32.2-24.8c-5.1,4.8-9.5,9.7-13.9,14.5c-17.5,20.7-24.1,39.3-15.4,49.6s30.7,13.8,60,9
	c3.7-0.7,7.3-1.4,11.7-2.1C185.2,264.3,182.3,248.4,180.8,232.6z M210.1,107.8c15.4,4.1,30.7,9.7,45.3,15.9
	c14.6-6.2,29.2-11,44.6-15.9c-1.5-3.4-2.9-6.9-3.7-9.7c-11-23.4-25.6-37.9-40.9-37.9s-30,14.5-40.9,37.9
	C212.3,101.6,210.8,105,210.1,107.8L210.1,107.8z M272.2,131.9c8,3.4,16.1,7.6,23.4,12.4c5.1,2.8,10.2,6.2,15.4,9
	c-1.5-10.3-4.4-21.4-7.3-31.7C293.4,124.3,283.2,127.8,272.2,131.9z M328.5,164.3c11.7,7.6,21.9,15.9,32.2,24.8
	c5.1-4.8,9.5-9.7,13.9-14.5c17.5-20.7,24.1-39.3,15.4-49.6c-8-11-30.7-13.8-60-9c-3.7,0.7-7.3,1.4-11.7,2.1
	C324.2,132.6,327.1,148.5,328.5,164.3L328.5,164.3z M350.5,198.8c-5.8-5.5-13.2-11-20.5-15.9c0,5.5,0.7,10.3,0.7,15.9
	c0,5.5,0,11-0.7,15.9C337.3,209.1,343.9,204.3,350.5,198.8z M313.9,171.2c-8-5.5-16.8-11-26.3-15.9l0,0c-11-6.2-21.9-11.7-32.9-16.5
	c-11,4.8-21.2,10.3-32.2,15.9h-0.7c-9.5,4.8-18.3,10.3-26.3,15.9c-0.7,9-1.5,17.9-1.5,27.6s0.7,18.6,1.5,27.6
	c8,5.5,16.8,10.3,25.6,15.2c0,0,0.7,0,0.7,0.7c11,6.2,21.2,11,32.2,15.9c11-4.8,21.9-10.3,32.9-15.9c9.5-4.8,18.3-10.3,26.3-15.9
	c0.7-9,1.5-17.9,1.5-27.6C314.6,189.1,314.6,180.2,313.9,171.2z M237.1,131.2c-10.2-4.1-21.2-7.6-32.2-11
	c-2.9,10.3-5.8,21.4-7.3,31.7c5.1-2.8,10.2-6.2,15.4-9l0,0C221.8,139.5,229.8,135.4,237.1,131.2L237.1,131.2z M158.9,198.1
	c5.8,5.5,13.2,11,20.5,15.9c0-5.5-0.7-10.3-0.7-15.9s0-11,0.7-15.9C172.1,187.8,165.5,192.6,158.9,198.1L158.9,198.1z M272.2,265
	c10.2,4.1,21.2,7.6,32.2,11c2.9-10.3,5.8-21.4,7.3-31.7c-5.1,2.8-10.2,6.2-15.4,9C287.6,257.4,279.6,261.5,272.2,265z"/>
</svg>
