<?xml version="1.0" encoding="utf-8"?>
<!-- Generator: Adobe Illustrator 26.0.1, SVG Export Plug-In . SVG Version: 6.00 Build 0)  -->
<svg version="1.1" id="Layer_2" xmlns="http://www.w3.org/2000/svg" xmlns:xlink="http://www.w3.org/1999/xlink" x="0px" y="0px"
	 viewBox="0 0 650 490" style="enable-background:new 0 0 650 490;" xml:space="preserve">
<style type="text/css">
	.st0{fill:#120F19;}
	.st1{fill:#FDFDFD;}
	.st2{fill-rule:evenodd;clip-rule:evenodd;fill:#F4F2F9;}
</style>
<rect x="-15" y="-6.9" class="st0" width="680" height="502"/>
<g>
	<path class="st1" d="M580.5,409.5"/>
</g>
<rect x="597.7" y="374.7" class="st0" width="40" height="12"/>
<g>
	<path class="st2" d="M161.8,179.3L323.2,65.9c0.4-0.3,0.9-0.3,1.3,0l162.3,113.3c0.9,0.6,0.5,2.1-0.7,2.1H162.5
		C161.3,181.4,160.9,179.9,161.8,179.3z M450.5,290.2l-3.4-15.4c-0.2-0.9,0.6-1.6,1.5-1.4c16.3,5,40.7,35.9,48.9,50.2
		c4.3,7.6,8.1,16,11.1,25.3c0,0,0,0.1,0,0.1c6.1,22.6,0.2,43.8-24.6,48.7c-15.6,3.1-44.6,3.3-60.9,2.5c-17.6-0.9-44.8-0.9-51.9-18.7
		c-11.5-28.9,9.5-63.2,28.7-84.3c2.5-2.8,5.1-5.3,7.8-7.7c6.2-5.4,12.8-11.6,20.5-15.1c1-0.5,2,0.6,1.5,1.6h0
		c-0.7,1.3,1.1,2.4,1.9,1.3l3.2-4.1c0.2-0.3,0.6-0.5,0.9-0.5h5.3c0.4,0,0.8,0.2,1,0.6L450.5,290.2L450.5,290.2z M442.4,303.9v3.8
		c0,0.6,0.4,1.1,1,1.1c2.8,0.4,5.2,1,7.3,1.8c2.3,1,4.3,2.5,6,4.5c1.4,1.5,2.4,3.1,3.1,4.7c0.7,1.6,1.1,3.1,1.1,4.4
		c0,1.5-0.6,2.8-1.7,3.9c-1.1,1.1-2.4,1.6-4,1.6c-3,0-4.9-1.6-5.8-4.7c-0.9-3.2-2.7-5.4-5.5-6.8c-0.8-0.4-1.6,0.2-1.6,1.1v16
		c0,0.5,0.4,1,0.9,1.1c3.3,0.9,6,1.8,8.1,2.5c2.2,0.8,4.2,2,5.9,3.6c1.9,1.6,3.3,3.6,4.3,5.9c1,2.3,1.5,4.8,1.5,7.5
		c0,3.4-0.8,6.6-2.4,9.5c-1.6,3-4,5.4-7.1,7.3c-2.9,1.7-6.3,2.8-10.1,3.2c-0.6,0.1-1,0.6-1,1.1v10.1c0,1.8-0.2,3-0.5,3.8
		c-0.3,0.8-1.1,1.2-2.3,1.2c-1.1,0-1.8-0.3-2.3-1c-0.4-0.7-0.6-1.7-0.6-3.1v-11c0-0.6-0.4-1.1-1-1.1c-3.1-0.4-5.8-1.2-8.2-2.3
		c-2.6-1.2-4.8-2.8-6.6-4.7c-1.8-1.9-3.1-3.8-3.9-5.8c-0.9-2-1.3-4-1.3-5.9c0-1.4,0.6-2.7,1.7-3.9c1.1-1.1,2.5-1.7,4.2-1.7
		c1.4,0,2.5,0.3,3.4,0.9c0.9,0.6,1.6,1.5,1.9,2.6c0.8,2.4,1.5,4.3,2.1,5.6c0.6,1.3,1.5,2.5,2.7,3.6c0.9,0.8,2,1.4,3.3,1.9
		c0.8,0.3,1.6-0.3,1.6-1.1V347c0-0.5-0.4-1-0.8-1.1c-3.7-1-6.7-2.2-9.3-3.5c-2.7-1.4-4.9-3.3-6.6-5.8c-1.7-2.5-2.5-5.7-2.5-9.7
		c0-5.1,1.7-9.3,4.9-12.6c3.1-3.1,7.5-5,13.2-5.6c0.6-0.1,1-0.6,1-1.1V304c0-2.5,1-3.8,2.8-3.8C441.4,300.2,442.4,301.4,442.4,303.9
		L442.4,303.9z M436.6,334.5V319c0-0.8-0.8-1.4-1.6-1.1c-1.8,0.7-3.2,1.5-4.4,2.4c-1.4,1.2-2.1,3.1-2.1,5.6c0,2.3,0.7,4.1,2,5.3
		C431.9,332.5,433.9,333.5,436.6,334.5L436.6,334.5z M442.4,347.8v18.1c0,0.8,0.7,1.3,1.5,1.1c2.3-0.7,4.2-1.7,5.6-3.3
		c1.7-1.8,2.5-3.9,2.5-6.4c0-2.6-0.8-4.6-2.4-6C447.9,350,445.5,348.8,442.4,347.8L442.4,347.8z M425.9,248.5
		c-2.8-8.2-5.3-16.4-7.5-24.8c-0.1-0.4,0-0.8,0.3-1.1c8.6-8.1,37.6-7.1,47.3-0.2c0.4,0.3,0.6,0.9,0.4,1.4l-4.2,10
		c-0.5,1.3,1.2,2.2,2,1.1c0.8-1,1.5-2,2.3-3c0.4-0.5,1.1-0.6,1.6-0.2c0.8,0.6,1.6,1.2,2.3,1.8c2.4,2.1,4.5,4.5,4.9,7.8
		c0.3,2.1-0.3,4.3-2.2,6.5l-18.8,21.6c-0.3,0.3-0.7,0.5-1.1,0.4c-1.8-0.3-3.6-0.7-5.4-1.3c-0.6-0.2-1-0.9-0.7-1.6
		c0.1-0.1,0.1-0.3,0.2-0.4c0.5-1.2-1-2.2-1.9-1.3l-1.9,2c-0.3,0.3-0.7,0.4-1.1,0.3c-6.6-1.3-12.1-0.5-17.1,2
		c-0.5,0.2-1.1,0.1-1.4-0.3l-18.9-22.4c-1.2-1.4-1.7-2.8-1.7-4.1c0-5.2,7.3-9.7,11.9-11.8c0.6-0.3,1.2,0,1.5,0.5L425.9,248.5
		L425.9,248.5z M150.9,350.5h18c0.6,0,1.2-0.5,1.2-1.2V334c0-0.6,0.5-1.2,1.2-1.2h7.8c0.6,0,1.2-0.5,1.2-1.2v-6.1
		c0-0.6,0.5-1.2,1.2-1.2h8.5c0.6,0,1.2-0.5,1.2-1.2v-98.7c0-0.6-0.5-1.2-1.2-1.2H170c-0.6,0-1.2-0.5-1.2-1.2v-21.9
		c0-0.6,0.5-1.2,1.2-1.2h248.2c1.3,0,1.6,1.8,0.4,2.2c-5.3,1.8-10,4.4-13.5,7.8c-2.3,2.2-4.1,5-5,8.1c-0.1,0.2-0.2,0.5-0.5,0.6
		c-2.1,1.4-4.2,3-6,4.7l-0.7,0.7h-9.9c-0.6,0-1.2,0.5-1.2,1.2v64.1c0,0.3-0.1,0.5-0.3,0.7c-10.9,12.9-21.8,29.4-27.8,47
		c-3.5,10.2-5.4,20.8-4.8,31.4c0,0.7-0.5,1.2-1.1,1.2H152.1c-0.6,0-1.2-0.5-1.2-1.2V350.5L150.9,350.5z M465.5,199.3h12.2
		c0.6,0,1.2,0.5,1.2,1.2v5.6c0,0.9-1,1.5-1.8,0.9c-3.2-2.2-7.3-4-11.8-5.5C463.9,201.1,464.2,199.3,465.5,199.3z M243.8,332.9H254
		c0.6,0,1.2-0.5,1.2-1.2v-6.1c0-0.6,0.5-1.2,1.2-1.2h8.5c0.6,0,1.2-0.5,1.2-1.2v-98.7c0-0.6-0.5-1.2-1.2-1.2H233
		c-0.6,0-1.2,0.5-1.2,1.2v98.7c0,0.6,0.5,1.2,1.2,1.2h8.5c0.6,0,1.2,0.5,1.2,1.2v6.1C242.7,332.4,243.2,332.9,243.8,332.9z
		 M317.7,332.9H329c0.6,0,1.2-0.5,1.2-1.2v-6.1c0-0.6,0.5-1.2,1.2-1.2h8.5c0.6,0,1.2-0.5,1.2-1.2v-98.7c0-0.6-0.5-1.2-1.2-1.2H308
		c-0.6,0-1.2,0.5-1.2,1.2v98.7c0,0.6,0.5,1.2,1.2,1.2h8.5c0.6,0,1.2,0.5,1.2,1.2L317.7,332.9L317.7,332.9z M271,150.1l52.4-39.8
		c0.4-0.3,1-0.3,1.4,0l52.7,39.8c0.9,0.7,0.4,2.1-0.7,2.1H271.7C270.6,152.1,270.2,150.7,271,150.1z"/>
</g>
</svg>
