<?xml version="1.0" encoding="utf-8"?>
<!-- Generator: Adobe Illustrator 26.0.1, SVG Export Plug-In . SVG Version: 6.00 Build 0)  -->
<svg version="1.1"
	 id="Layer_1" shape-rendering="geometricPrecision" image-rendering="optimizeQuality" text-rendering="geometricPrecision"
	 xmlns="http://www.w3.org/2000/svg" xmlns:xlink="http://www.w3.org/1999/xlink" x="0px" y="0px" viewBox="0 0 512 512"
	 style="enable-background:new 0 0 512 512;" xml:space="preserve">
<style type="text/css">
	.st0{fill:#EEEDF2;}
</style>
<path class="st0" d="M377.7,121.9c-3.7-3.5-7.9-5.1-12.8-5.1c-5,0-9.3,1.6-12.8,5.1l-19.7,18.7c-5.2-3.3-10.8-6-16.6-8.6
	c-5.8-2.6-11.8-4.8-17.8-6.6V96.8c0-4.9-1.7-8.8-5.2-12.3c-3.5-3.3-7.9-4.9-12.8-4.9h-37.9c-4.8,0-9.1,1.6-12.8,4.9
	c-3.7,3.3-5.4,7.5-5.4,12.3V123c-6.4,1.5-12.6,3.1-18.4,5.3c-5.8,2.2-11.6,4.6-17,7.5l-22.2-20.7c-3.5-3.5-7.5-5.1-12.6-5.1
	c-5,0-9.3,1.6-12.8,5.1l-26.5,25.2c-3.7,3.5-5.4,7.5-5.4,12.1c0,4.8,1.7,8.8,5.4,12.3l19.7,18.7c-3.5,4.9-6.4,10.2-9.1,15.9
	c-2.7,5.5-5,11.2-7,16.8H87.9c-5.2,0-9.3,1.6-13,4.9c-3.5,3.3-5.2,7.5-5.2,12.3v35.9c0,4.6,1.7,8.6,5.2,12.1c3.5,3.5,7.9,5.1,13,5.1
	h27.7c1.5,6,3.3,11.9,5.6,17.4c2.3,5.7,4.8,11.2,7.9,16.5l-21.5,20.3c-3.7,3.3-5.4,7.1-5.4,12.1c0,4.8,1.7,8.8,5.4,12.3l26.7,25.4
	c3.7,3.3,7.9,4.9,12.8,4.9c5,0,9.3-1.6,12.8-4.9l19.7-18.8c5.2,3.3,10.8,6,16.8,8.6c5.8,2.6,11.8,4.8,17.8,6.6v28.5
	c0,4.9,1.7,8.8,5.2,12.3c3.5,3.3,7.9,4.9,12.8,4.9h37.9c4.8,0,9.1-1.6,12.8-4.9c3.7-3.3,5.4-7.5,5.4-12.3V389
	c6.4-1.5,12.6-3.1,18.4-5.3s11.8-4.6,17.4-7.5l21.5,20.3c3.5,3.5,7.7,5.1,12.8,5.1c5.2,0,9.3-1.6,12.8-5.1l26.9-25.2
	c3.5-3.5,5.2-7.5,5.2-12.3c0-4.8-1.7-8.8-5.2-12.3l-19.9-18.7c3.5-4.9,6.4-10.2,9.1-15.9c2.7-5.7,5-11.2,7-16.8h30.2
	c5.2,0,9.3-1.6,12.8-4.9c3.5-3.3,5.2-7.5,5.2-12.3v-35.9c0-4.6-1.7-8.6-5.2-12.1c-3.5-3.5-7.9-5.1-12.8-5.1h-27.7
	c-1.5-5.7-3.3-11.5-5.6-17.2c-2.3-5.7-4.8-11.2-7.9-16.3l21.5-20.7c3.7-3.3,5.4-7.1,5.4-11.9s-1.7-8.8-5.4-12.3L377.7,121.9
	L377.7,121.9z M342.5,299.5c-16.4,29.3-49.1,49.2-86.7,49.2s-70.2-19.9-86.7-49.2c1.9-8.1,5.2-15,14.5-19.9c13-7,35.2-6.2,45.8-15.4
	l14.7,36.2l7.4-19.9l-3.7-3.7c-2.7-3.7-1.7-8.1,3.1-8.8c1.7-0.4,3.7-0.2,5.4-0.2c1.9,0,4.1-0.2,6,0.4c4.6,0.9,5.2,5.3,2.9,8.8
	l-3.7,3.7l7.4,19.9l13.3-36.2c9.5,8.2,35.2,9.7,45.8,15.4C337.4,284.7,340.5,291.7,342.5,299.5L342.5,299.5z M226.6,239.9
	c-1.4,0-2.5-0.2-3.7-0.7c-1.5-0.9-2.7-2.4-3.5-3.8c-1.5-3.3-2.9-12.1,1.2-14.6l-0.8-0.4l-0.2-0.9c-0.2-1.6-0.2-3.8-0.4-6.2
	c-0.2-8.2-0.4-18.3-7.5-20.3l-3.1-0.9l2.1-2.4c5.8-6.6,12-12.4,18-16.8c7-4.9,14.1-8.4,20.9-9.5c7.2-0.9,14.1,0.5,20.3,5.3
	c1.7,1.5,3.7,3.1,5.4,4.9c6.8,0.5,12.4,4,16.2,8.8c2.5,2.9,4.1,6.2,5.2,9.9c1.2,3.7,1.7,7.5,1.4,11.2c-0.4,6.8-3.1,13.4-8.5,18.1
	c1,0,1.7,0.4,2.5,0.5c3.1,1.5,3.1,4.8,2.3,7.5c-0.8,2.4-1.7,4.9-2.7,7.1c-1.2,2.9-2.9,3.7-6,3.1C279.6,270.1,235.9,271,226.6,239.9
	L226.6,239.9z M255.8,146.4c63.8,0,115.5,48.9,115.5,109.4c0,60.4-51.6,109.4-115.5,109.4s-115.5-48.9-115.5-109.4
	S192,146.4,255.8,146.4L255.8,146.4z"/>
</svg>
