<?xml version="1.0" encoding="utf-8"?>
<!-- Generator: Adobe Illustrator 26.0.1, SVG Export Plug-In . SVG Version: 6.00 Build 0)  -->
<svg version="1.1" id="Layer_2" xmlns="http://www.w3.org/2000/svg" xmlns:xlink="http://www.w3.org/1999/xlink" x="0px" y="0px"
	 viewBox="0 0 650 490" style="enable-background:new 0 0 650 490;" xml:space="preserve">
<style type="text/css">
	.st0{fill:#120F19;}
	.st1{fill:#FDFDFD;}
	.st2{fill-rule:evenodd;clip-rule:evenodd;fill:#EFEDF4;}
</style>
<rect x="-15" y="-6.9" class="st0" width="680" height="502"/>
<g>
	<path class="st1" d="M580.5,409.5"/>
</g>
<rect x="597.7" y="374.7" class="st0" width="40" height="12"/>
<g>
	<path class="st2" d="M308.3,283.3L308.3,283.3c11.9,10.4,64.9,18.1,78,25.2c0.8,0.4,1.5,0.9,2.2,1.4c9-2.3,17.1-4.8,21.3-8.5
		c-0.1-2.4-0.6-4.8-1.4-7.1c-8.6-7.9-13.6-18.7-14.1-30.2c-8.8,0.9-10.2-33,0-21.5l-0.6-2c-1.3-1.1-2.1-2.7-2.2-4.3v-21.5l34,10.1
		c6.3,1.4,12.9,1.4,19.3,0l35.6-10l0.6,21.1c-0.2,1.8-0.7,3.5-1.7,5c-0.8,1.1-1.9,1.9-3.1,2.5v0.4c10.2-7.6,6.2,24.2-3.5,23.3
		c0,9.6-3.8,18.8-10.6,25.7l-1.5,1.4c-0.9,2.2-1.3,4.6-1.3,7l0,0c8.9,7.8,48.6,13.6,58.4,18.9c12.4,6.7,9.6,22.8,12.4,34.8H147.9
		c3.7-15.8,0-37.6,16.5-46.5c18.1-9.8,63.9-12.8,78-25.2c-0.2-3.2-0.8-6.4-1.9-9.5c-11.5-10.6-18.2-25.1-18.8-40.4
		c-11.6,1.1-13.7-44.2,0-29.1c-0.5-1.7-1-3.3-1.4-4.7c-2.2-1.6-3.6-4-4-6.6v-29.2l46.6,13.8c8.7,1.8,17.7,1.8,26.4,0l48.8-13.7
		l0.8,28.8c-0.2,2.4-1,4.8-2.3,6.9c-1.3,1.7-3.1,3-5.1,3.8c-0.2,0.9-0.5,1.9-0.8,2.9c13.6-10.2,8.2,32.1-4.6,31.2
		c-0.1,12.8-5.1,25.1-14.1,34.4l-2,1.9C308.8,277,308.2,280.2,308.3,283.3L308.3,283.3z M495.4,202.5v22.8h0.8c0.6,0,1,0.4,1,1l0,0
		v6.9c0,0.6-0.5,1-1,1h-0.8v2.4c1.1,0.2,1.9,1.1,1.9,2.2l0,0c0,1.2-1,2.2-2.3,2.2h-4.1c-1.3,0-2.3-1-2.3-2.2l0,0
		c0-1.1,0.8-2,1.9-2.2v-2.4h-0.8c-0.6,0-1.1-0.5-1.1-1v-6.9c0-0.6,0.5-1,1.1-1h0.8v-21.3l-43.3,13.1c-7.7,1.9-15.8,1.9-23.5,0
		l-47.8-13.9l-4.3-1.3c-5.4-2.1-4-7.2,1-8.3l54.1-15.7c5.4-1.7,11.3-1.7,16.7,0l53,15.5c5.8,1.4,6.9,6.6,0.2,8.7l-1.1,0.3
		L495.4,202.5z M358.7,146.2v32.4h1.2c0.8,0,1.4,0.6,1.4,1.4v9.5c0,0.8-0.7,1.4-1.4,1.4h-1.2v3.3c1.5,0.3,2.6,1.5,2.6,3l0,0
		c0,1.7-1.4,3-3.1,3h-5.7c-1.7,0-3.1-1.4-3.1-3l0,0c0-1.5,1.1-2.8,2.6-3v-3.3h-1.2c-0.8,0-1.4-0.6-1.4-1.4v-9.5
		c0-0.8,0.7-1.4,1.4-1.4h1.2v-30.2l-59.4,17.8c-10.6,2.6-21.7,2.6-32.2,0l-65.5-19.1l-5.9-1.7c-7.4-3-5.5-9.8,1.3-11.4l74.1-21.4
		c7.5-2.3,15.5-2.3,22.9,0l72.8,21.1c7.9,1.8,9.3,9.1,0.2,11.9L358.7,146.2L358.7,146.2z"/>
</g>
</svg>
