<?xml version="1.0" encoding="utf-8"?>
<!-- Generator: Adobe Illustrator 26.0.1, SVG Export Plug-In . SVG Version: 6.00 Build 0)  -->
<svg version="1.1" id="Layer_1" xmlns="http://www.w3.org/2000/svg" xmlns:xlink="http://www.w3.org/1999/xlink" x="0px" y="0px"
	 viewBox="0 0 122.9 92.2" style="enable-background:new 0 0 122.9 92.2;" xml:space="preserve">
<style type="text/css">
	.st0{fill-rule:evenodd;clip-rule:evenodd;fill:#F1F0F7;}
	.st1{fill:#F7F7F9;}
</style>
<path class="st0" d="M48.4,68.9V44.5h10.3c4.4,0.8,8.7,3.3,13.1,6.3h8c3.6,0.2,5.5,4.1,2,6.7c-2.8,2.2-6.5,2.1-10.3,1.7
	c-2.6-0.1-2.7,3.6,0,3.6c0.9,0.1,2-0.2,2.9-0.2c4.7,0,8.6-1,11-5l1.2-3l11.9-6.3c5.9-2.1,10.2,4.5,5.8,9.2
	c-8.3,6.4-17.1,12-26.4,16.6c-6.6,4.3-13.1,4.1-19.7,0L48.4,68.9z M68.5,27.6 M80.6,22.1 M96.2,30.1 M81.9,27.9 M77.4,27.9
	L77.4,27.9 M33.9,42.2h11.4v29.2H33.9V42.2z"/>
<g>
	<g>
		<path class="st1" d="M92.2,18.3c4,2.4,7.4,5.8,10,10l0.3,0.4l-0.3,0.4c-2.6,4.2-6,7.6-10,10c-3.9,2.3-8.2,3.6-12.9,3.6
			c-4.6,0-9-1.3-12.9-3.6c-4-2.4-7.4-5.8-10-10l-0.3-0.4l0.3-0.4c2.6-4.2,6-7.6,10-10c3.9-2.3,8.2-3.6,12.9-3.6
			C84,14.7,88.3,16,92.2,18.3L92.2,18.3z M79.1,22.1l1.5,0.1c-0.5,0.7-0.9,1.6-0.9,2.6c0,2.5,2.2,4.5,4.9,4.5c0.9,0,1.7-0.2,2.4-0.6
			c0,0.2,0,0.3,0,0.5c0,3.9-3.6,7.1-8,7.1c-4.4,0-8-3.2-8-7.1C71.1,25.2,74.6,22.1,79.1,22.1L79.1,22.1L79.1,22.1z M97.2,28.6
			c-2.1-3.2-4.7-5.9-7.8-7.7c-3-1.8-6.5-2.8-10.1-2.8c-3.6,0-7,1-10.1,2.8c-3.1,1.8-5.8,4.5-7.8,7.7c2.1,3.2,4.7,5.9,7.8,7.7
			c3,1.8,6.5,2.8,10.1,2.8c3.6,0,7-1,10.1-2.8C92.5,34.5,95.1,31.9,97.2,28.6L97.2,28.6z"/>
	</g>
</g>
</svg>
