<?xml version="1.0" encoding="utf-8"?>
<!-- Generator: Adobe Illustrator 26.0.1, SVG Export Plug-In . SVG Version: 6.00 Build 0)  -->
<svg version="1.1" id="Layer_1" xmlns="http://www.w3.org/2000/svg" xmlns:xlink="http://www.w3.org/1999/xlink" x="0px" y="0px"
	 viewBox="0 0 122.9 113.5" style="enable-background:new 0 0 122.9 113.5;" xml:space="preserve">
<style type="text/css">
	.st0{fill:#F5F4F9;}
</style>
<g>
	<path class="st0" d="M53.2,19L53.2,19L53.2,19c4.3,0,8.4,0.6,12.3,1.7c0.6,0.2,1.3,0.4,1.9,0.6c0.7,0.2,1.4,0.5,2.1,0.8l-2.8,5
		c-4.2-1.5-8.7-2.4-13.5-2.4h0l0,0c-5.2,0-10.1,1-14.6,2.8c-0.7,0.3-1.5,0.6-2.2,1c-3.6,1.8-6.9,4.1-9.8,6.8l0,0l0,0
		c-0.9,0.9-1.8,1.9-2.7,2.9c-0.8,1-1.6,2.1-2.4,3.2c-3.8,5.6-6,12.3-6,19.5v0l0,0c0,5,1.1,9.7,3,14.1c0.3,0.7,0.6,1.4,1,2.1
		c1.8,3.5,4.2,6.7,7.1,9.4l0,0l0,0c0.9,0.9,1.9,1.8,3,2.6c1.1,0.8,2.1,1.6,3.3,2.3c5.8,3.6,12.8,5.7,20.3,5.7h0l0,0
		c5.2,0,10.1-1,14.6-2.8c0.7-0.3,1.5-0.6,2.2-1c3.6-1.8,6.9-4.1,9.8-6.8h0l0,0c0.9-0.9,1.8-1.9,2.7-2.9c0.8-1,1.6-2.1,2.4-3.2
		c3.8-5.6,5.9-12.3,5.9-19.5l5.9-0.9c0,0.3,0,0.6,0,0.9v0l0,0c0,5.8-1.2,11.3-3.4,16.3c-0.4,0.8-0.7,1.6-1.2,2.4
		c-2.1,4.1-4.9,7.7-8.2,10.9l0,0l0,0c-1.1,1.1-2.3,2.1-3.5,3c-1.2,0.9-2.5,1.8-3.8,2.6c-6.8,4.2-14.8,6.6-23.4,6.6l0,0l0,0
		c-6,0-11.7-1.2-16.9-3.3c-0.8-0.3-1.7-0.7-2.5-1.1c-4.2-2-8-4.7-11.3-7.9l0,0l0,0c-1.1-1.1-2.1-2.2-3.1-3.3c-1-1.2-1.9-2.4-2.7-3.7
		C12.3,77,9.8,69.2,9.8,60.9v0l0,0c0-5.8,1.2-11.3,3.4-16.3c0.4-0.8,0.7-1.6,1.2-2.4c2.1-4.1,4.9-7.7,8.2-10.9l0,0l0,0
		c1.1-1.1,2.3-2.1,3.5-3c1.2-0.9,2.5-1.8,3.8-2.6C36.5,21.5,44.6,19,53.2,19L53.2,19L53.2,19z M56.8,59L84,10.8l3.5,27.4l25.6,12.5
		L56.8,59L56.8,59z M53.2,47.7L53.2,47.7L53.2,47.7c0.6,0,1.2,0,1.8,0.1l-3.2,5.7c-0.6,0.1-1.1,0.3-1.6,0.5
		c-0.2,0.1-0.3,0.1-0.5,0.2c-0.8,0.4-1.4,0.8-2,1.4l0,0l0,0c-0.2,0.2-0.4,0.4-0.5,0.6c-0.2,0.2-0.3,0.4-0.5,0.7
		c-0.8,1.2-1.2,2.6-1.2,4.1v0l0,0c0,1,0.2,2,0.6,2.9c0.1,0.2,0.1,0.3,0.2,0.4c0.4,0.7,0.9,1.4,1.5,2l0,0l0,0
		c0.2,0.2,0.4,0.4,0.6,0.5c0.2,0.2,0.4,0.3,0.7,0.5c1.2,0.8,2.7,1.2,4.2,1.2l0,0l0,0c1.1,0,2.1-0.2,3.1-0.6c0.2-0.1,0.3-0.1,0.5-0.2
		c0.8-0.4,1.4-0.8,2-1.4l0,0l0,0c0.1-0.1,0.2-0.2,0.3-0.3c0.1-0.1,0.2-0.2,0.3-0.3l7.1-1.1c-0.2,0.5-0.3,1-0.6,1.5
		c-0.1,0.3-0.2,0.5-0.4,0.8c-0.7,1.3-1.5,2.4-2.6,3.5l0,0l0,0c-0.3,0.3-0.7,0.6-1.1,0.9c-0.4,0.3-0.8,0.6-1.2,0.8
		c-2.1,1.3-4.7,2.1-7.4,2.1l0,0l0,0c-1.9,0-3.7-0.4-5.3-1c-0.3-0.1-0.5-0.2-0.8-0.3c-1.3-0.6-2.5-1.5-3.6-2.5l0,0l0,0
		c-0.3-0.3-0.7-0.7-1-1c-0.3-0.4-0.6-0.8-0.9-1.2c-1.4-2.1-2.2-4.5-2.2-7.1v0l0,0c0-1.8,0.4-3.6,1.1-5.2c0.1-0.3,0.2-0.5,0.4-0.8
		c0.7-1.3,1.5-2.4,2.6-3.4l0,0l0,0l0,0c0.3-0.3,0.7-0.6,1.1-0.9c0.4-0.3,0.8-0.6,1.2-0.8C47.9,48.4,50.5,47.7,53.2,47.7L53.2,47.7
		L53.2,47.7z M53.2,33.2L53.2,33.2L53.2,33.2c2.6,0,5.1,0.3,7.4,0.9c0.4,0.1,0.8,0.2,1.1,0.3c0.2,0.1,0.4,0.1,0.6,0.2l-2.9,5.1
		c-2-0.6-4.1-0.9-6.3-0.9l0,0l0,0c-3.1,0-6.1,0.6-8.9,1.7c-0.4,0.2-0.9,0.4-1.3,0.6l0,0c-2.2,1.1-4.2,2.5-5.9,4.1l0,0l0,0
		c-0.6,0.6-1.1,1.1-1.6,1.7c-0.5,0.6-1,1.3-1.4,1.9c-2.3,3.4-3.6,7.5-3.6,11.9v0l0,0c0,3,0.6,5.9,1.8,8.6c0.2,0.4,0.4,0.9,0.6,1.3
		c1.1,2.1,2.6,4.1,4.3,5.7l0,0c0.6,0.6,1.2,1.1,1.8,1.6c0.6,0.5,1.3,1,2,1.4c3.5,2.2,7.8,3.5,12.3,3.5h0l0,0c3.1,0,6.1-0.6,8.9-1.7
		c0.4-0.2,0.9-0.4,1.3-0.6c2.2-1.1,4.2-2.5,5.9-4.1l0,0c0.6-0.6,1.1-1.2,1.6-1.8c0.5-0.6,1-1.3,1.4-1.9c1.9-2.8,3.1-6.1,3.5-9.6
		l6-0.9c-0.2,3.3-0.9,6.5-2.2,9.4c-0.2,0.5-0.5,1.1-0.8,1.6c-1.4,2.7-3.2,5.1-5.4,7.2l0,0l0,0c-0.7,0.7-1.5,1.4-2.3,2
		c-0.8,0.6-1.6,1.2-2.5,1.7c-4.5,2.8-9.8,4.4-15.5,4.4l0,0l0,0c-4,0-7.7-0.8-11.2-2.2c-0.6-0.2-1.1-0.5-1.6-0.7
		c-2.8-1.3-5.3-3.1-7.5-5.2l0,0l0,0c-0.7-0.7-1.4-1.4-2-2.2c-0.6-0.8-1.3-1.6-1.8-2.4c-2.9-4.3-4.5-9.4-4.5-14.9v0l0,0
		c0-3.8,0.8-7.5,2.3-10.8c0.2-0.5,0.5-1.1,0.8-1.6c1.4-2.7,3.2-5.1,5.4-7.2l0,0l0,0l0,0l0,0c0.7-0.7,1.5-1.4,2.3-2
		c0.8-0.6,1.6-1.2,2.5-1.7C42.2,34.8,47.5,33.2,53.2,33.2L53.2,33.2L53.2,33.2z"/>
</g>
</svg>
