<?xml version="1.0" encoding="utf-8"?>
<!-- Generator: Adobe Illustrator 26.0.1, SVG Export Plug-In . SVG Version: 6.00 Build 0)  -->
<svg version="1.1" id="Layer_2" xmlns="http://www.w3.org/2000/svg" xmlns:xlink="http://www.w3.org/1999/xlink" x="0px" y="0px"
	 viewBox="0 0 650 490" style="enable-background:new 0 0 650 490;" xml:space="preserve">
<style type="text/css">
	.st0{fill:#120F19;}
	.st1{fill:#FDFDFD;}
	.st2{fill-rule:evenodd;clip-rule:evenodd;fill:#F5F4F9;}
</style>
<rect x="-15" y="-6.9" class="st0" width="680" height="502"/>
<g>
	<path class="st1" d="M580.5,409.5"/>
</g>
<rect x="597.7" y="374.7" class="st0" width="40" height="12"/>
<g>
	<path class="st2" d="M223.7,384.6V281.4h47.6c20.2,3.5,40.3,14.2,60.4,26.6h36.9c16.6,1,25.5,17.6,9.2,28.4
		c-12.9,9.3-30,8.8-47.5,7.2c-12.1-0.6-12.6,15.3,0,15.3c4.4,0.4,9.1-0.7,13.3-0.7c21.8,0,39.8-4.1,50.8-21l5.5-12.6l55-26.6
		c27.5-8.8,47.1,19.2,26.8,38.8c-38.3,27.4-79.3,51-122.3,70.5c-30.3,18-60.6,17.4-90.9,0L223.7,384.6z M337.6,119.6
		c14.5-14.8,24.7-27.6,47.1-30.1c41.8-4.6,80.6,37.4,59.3,78.8l-0.4,0.7h-8.3v-17.3c0-5.8-2.4-11.3-6.6-15.4l0,0
		c-4.2-4.1-9.9-6.4-15.9-6.4h-24.2c-5.9,0-11.6,2.3-15.8,6.4l0,0c-4.2,4.1-6.6,9.7-6.6,15.5V169h-17.7c-5.9,0-11.6,2.4-15.8,6.5l0,0
		c-4.2,4.1-6.6,9.7-6.6,15.5v23.7c0,12.1,10,21.9,22.4,21.9h17.7v15.2l-28.7,27.7l-26.1-24.5c-31.4-29.5-82.5-66.6-84.2-112.7
		c-1.2-32.2,24.8-52.9,54.8-52.5C308.9,90.1,320.2,103.1,337.6,119.6L337.6,119.6z M149.3,271.5h60.1v123.6h-60.1V271.5z"/>
	<path class="st2" d="M390.2,143.1h25.7c4.9,0,8.8,3.8,8.8,8.6v32.9h33.9c4.9,0,8.8,3.8,8.8,8.6V218c0,4.7-4,8.6-8.8,8.6h-34v31.8
		c0,4.7-4,8.6-8.8,8.6h-25.6c-4.9,0-8.8-3.8-8.8-8.6v-32.2h-33.8c-4.9,0-8.8-3.8-8.8-8.6v-24.8c0-4.7,4-8.6,8.8-8.6h33.9v-32.8
		c0-4.7,4-8.6,8.8-8.6L390.2,143.1z"/>
</g>
</svg>
