<?xml version="1.0" encoding="utf-8"?>
<!-- Generator: Adobe Illustrator 26.0.1, SVG Export Plug-In . SVG Version: 6.00 Build 0)  -->
<svg version="1.1" id="Layer_2" xmlns="http://www.w3.org/2000/svg" xmlns:xlink="http://www.w3.org/1999/xlink" x="0px" y="0px"
	 viewBox="0 0 650 490" style="enable-background:new 0 0 650 490;" xml:space="preserve">
<style type="text/css">
	.st0{fill:#120F19;}
	.st1{fill:#FDFDFD;}
	.st2{fill-rule:evenodd;clip-rule:evenodd;fill:#F3F2F7;}
</style>
<rect x="-10" y="-6" class="st0" width="680" height="502"/>
<g>
	<path class="st1" d="M580.5,409.5"/>
</g>
<rect x="597.7" y="374.7" class="st0" width="40" height="12"/>
<g>
	<path class="st2" d="M126.3,371.3h38.2c-1.3-1.4-1.9-3.2-1.9-5.1V206.6c0-4,3.2-7.3,7.2-7.3l0,0h299.8c3.9,0,7.1,3.3,7.2,7.3v159.6
		c0,1.9-0.7,3.7-2,5.1h39.9c5.7,0,10.3,4.7,10.3,10.5c0,5.8-4.6,10.5-10.3,10.5H126.3c-5.7,0-10.3-4.7-10.3-10.5
		C116,376,120.6,371.3,126.3,371.3z M409.1,153h-20.3v32.5h-14.2v-39.7c0-4,3.1-7.2,7.1-7.3c0,0,0,0,0.1,0h27.5
		c4.1-11,16.1-16.6,26.9-12.4c10.8,4.2,16.2,16.5,12.1,27.5c-4.1,11-16.1,16.6-26.9,12.4C415.6,163.7,411,159,409.1,153L409.1,153z
		 M262.4,158.1v27.4h-14.3v-20.1h-16.3c-3.9,11.1-15.9,16.8-26.8,12.8c-10.8-4-16.4-16.3-12.5-27.3c3.9-11.1,15.9-16.8,26.8-12.8
		c5.8,2.2,10.4,6.8,12.5,12.8h23.6c1.9,0,3.7,0.8,5,2.1C261.7,154.3,262.4,156.2,262.4,158.1z M226,78.3c-11.5,0-20.9,9.6-20.9,21.3
		s9.4,21.3,20.9,21.3c8.3,0,15.8-5,19.1-12.7h41.8v77.2h14.2V101c0-4-3.1-7.3-7-7.3c0,0-0.1,0-0.1,0h-48
		C243.5,84.6,235.3,78.3,226,78.3L226,78.3z M341.7,78.6c-11.5,0-20.9,9.5-20.9,21.3c0,9,5.5,17.1,13.8,20.1v65.4h14.3V120
		c10.9-4,16.5-16.2,12.6-27.3C358.5,84.2,350.6,78.6,341.7,78.6z M286.1,241.3c0-6.5,1.8-12.9,5.2-18.5h58.3
		c3.4,5.5,5.2,11.9,5.2,18.5c0,19.4-15.4,35-34.3,35C301.4,276.3,286.1,260.6,286.1,241.3z M419.5,242.6v7.3
		c0,6.9-5.5,12.5-12.2,12.5h-12.5c-1.6,7.1-4.1,14-7.6,20.4l8.3,8.4c4.7,4.9,4.7,12.7,0,17.6l-10,10.4c-4.8,4.9-12.5,4.9-17.3,0
		l-7.6-7.8c-6.4,4.1-13.4,7.2-20.7,9.1v10.6c0,6.9-5.5,12.5-12.2,12.5h-14.4c-6.7,0-12.2-5.6-12.2-12.5v-10.5
		c-7.4-1.9-14.4-5-20.9-9.1l-7.4,7.6c-4.8,4.8-12.5,4.8-17.3,0l-10.2-10.4c-4.7-4.9-4.7-12.7,0-17.6l8-8.2
		c-3.5-6.5-6.1-13.4-7.7-20.7h-12c-6.7,0-12.2-5.6-12.2-12.5v-14.7c0-6.6,5.1-12.1,11.6-12.4h41c-2,5.5-3,11.3-3,17.2
		c0,0.9,0,1.7,0,2.6s0,1.7,0,2.6c0,27.7,22,50.2,49.2,50.2c27.2,0,49.2-22.5,49.2-50.2c0-0.8,0-1.7,0-2.6c0-0.8,0-1.7,0-2.6
		c0-5.9-1-11.7-3-17.2h41.5c6.5,0.3,11.6,5.8,11.6,12.4v7.4V242.6z M174.7,210.7h290.7v153.5H174.7V210.7z M308.6,376.5h23.6
		c2.1,0.1,3.9,1.8,3.9,4l0,0c0.1,2.3-1.7,4.2-3.9,4.2c0,0,0,0,0,0h-23.6c-2.2,0-4-1.9-4-4.1c0,0,0,0,0-0.1l0,0c0-2.2,1.8-4.1,4-4.1
		V376.5z"/>
</g>
</svg>
