<?xml version="1.0" encoding="utf-8"?>
<!-- Generator: Adobe Illustrator 24.0.0, SVG Export Plug-In . SVG Version: 6.00 Build 0)  -->
<svg version="1.1" id="Layer_1" xmlns="http://www.w3.org/2000/svg" xmlns:xlink="http://www.w3.org/1999/xlink" x="0px" y="0px"
	 viewBox="0 0 256 256" style="enable-background:new 0 0 256 256;" xml:space="preserve">
<style type="text/css">
	.st0{fill:#382B73;}
	.st1{fill:#291B4A;}
	.st2{fill:#ED9ABC;}
	.st3{fill:#E54890;}
	.st4{fill:#D3D3D3;}
	.st5{fill:#EBE7F2;}
	.st6{fill:#F9B087;}
	.st7{fill:#FF8639;}
	.st8{fill:#65C1D6;}
	.st9{fill:#149CB2;}
</style>
<g>
	<g>
		<g>
			<g>
				<g>
					
						<ellipse transform="matrix(0.7071 -0.7071 0.7071 0.7071 -53.0193 128)" class="st0" cx="128" cy="128" rx="119.4" ry="119.4"/>
				</g>
			</g>
		</g>
	</g>
	<g>
		<g>
			<g>
				<g>
					<path class="st1" d="M52.368,70.867c-1.381,0-2.5,1.119-2.5,2.5v117.266c0,1.381,1.119,2.5,2.5,2.5h151.264
						c1.381,0,2.5-1.119,2.5-2.5s-1.119-2.5-2.5-2.5h-14.584V101.14c0-1.381-1.119-2.5-2.5-2.5h-20.237c-1.381,0-2.5,1.119-2.5,2.5
						v86.993h-8.157V101.14c0-1.381-1.119-2.5-2.5-2.5h-20.237c-1.381,0-2.5,1.119-2.5,2.5v86.993h-8.157v-40.702
						c0-1.381-1.119-2.5-2.5-2.5H99.522c-1.381,0-2.5,1.119-2.5,2.5v40.702h-8.158v-62.167c0-1.381-1.119-2.5-2.5-2.5H66.127
						c-1.381,0-2.5,1.119-2.5,2.5v62.167h-8.759V73.367C54.868,71.986,53.749,70.867,52.368,70.867z M168.811,103.64h15.237v84.493
						h-15.237V103.64z M135.416,103.64h15.237v84.493h-15.237V103.64z M102.022,149.931h15.237v38.202h-15.237V149.931z
						 M68.627,128.465h15.237v59.667H68.627V128.465z"/>
				</g>
			</g>
		</g>
		<g>
			<g>
				<g>
					<path class="st1" d="M76.246,90.14c-5.88,0-10.663,4.783-10.663,10.663c0,5.879,4.783,10.663,10.663,10.663
						c2.338,0,4.495-0.765,6.255-2.046l17.638,15.034c-0.737,1.448-1.161,3.081-1.161,4.814c0,5.88,4.783,10.663,10.663,10.663
						c5.88,0,10.663-4.783,10.663-10.663c0-3.302-1.509-6.258-3.874-8.216l24.268-49.756c0.729,0.158,1.484,0.246,2.259,0.246
						c2.835,0,5.409-1.119,7.321-2.93l16.144,10.72c-0.416,1.139-0.655,2.363-0.655,3.644c0,5.88,4.783,10.663,10.663,10.663
						s10.663-4.783,10.663-10.663s-4.783-10.663-10.663-10.663c-2.796,0-5.335,1.09-7.239,2.856l-16.188-10.749
						c0.392-1.11,0.617-2.298,0.617-3.541c0-5.88-4.783-10.663-10.663-10.663S132.294,55,132.294,60.88
						c0,3.316,1.522,6.282,3.903,8.239l-24.261,49.741c-0.74-0.163-1.507-0.255-2.295-0.255c-2.338,0-4.495,0.765-6.255,2.046
						l-17.638-15.034c0.737-1.448,1.161-3.081,1.161-4.814C86.909,94.923,82.126,90.14,76.246,90.14z M76.246,106.465
						c-3.123,0-5.663-2.54-5.663-5.663s2.541-5.663,5.663-5.663s5.663,2.541,5.663,5.663S79.369,106.465,76.246,106.465z
						 M176.43,77.313c3.123,0,5.663,2.541,5.663,5.663s-2.54,5.663-5.663,5.663s-5.663-2.541-5.663-5.663
						S173.307,77.313,176.43,77.313z M142.957,55.217c3.123,0,5.663,2.541,5.663,5.663s-2.54,5.663-5.663,5.663
						c-0.877,0-1.705-0.206-2.447-0.563c0,0,0,0-0.001,0s-0.001,0-0.001,0c-1.899-0.916-3.215-2.854-3.215-5.099
						C137.294,57.757,139.834,55.217,142.957,55.217z M109.64,123.605c3.123,0,5.663,2.541,5.663,5.663s-2.541,5.663-5.663,5.663
						s-5.663-2.541-5.663-5.663S106.518,123.605,109.64,123.605z"/>
				</g>
			</g>
		</g>
	</g>
	<g>
		<g>
			<g>
				<g>
					<g>
						<g>
							<path class="st8" d="M119.759,189.133c1.381,0,2.5-1.119,2.5-2.5v-43.202c0-1.381-1.119-2.5-2.5-2.5H99.522
								c-1.381,0-2.5,1.119-2.5,2.5v43.202c0,1.381,1.119,2.5,2.5,2.5H119.759z M102.022,145.931h15.237v38.202h-15.237V145.931z"/>
						</g>
					</g>
				</g>
				<g>
					<g>
						<g>
							<path class="st8" d="M153.153,189.133c1.381,0,2.5-1.119,2.5-2.5V97.14c0-1.381-1.119-2.5-2.5-2.5h-20.237
								c-1.381,0-2.5,1.119-2.5,2.5v89.493c0,1.381,1.119,2.5,2.5,2.5H153.153z M135.416,99.64h15.237v84.493h-15.237V99.64z"/>
						</g>
					</g>
				</g>
				<g>
					<g>
						<g>
							<path class="st8" d="M86.364,189.133c1.381,0,2.5-1.119,2.5-2.5v-64.667c0-1.381-1.119-2.5-2.5-2.5H66.127
								c-1.381,0-2.5,1.119-2.5,2.5v64.667c0,1.381,1.119,2.5,2.5,2.5H86.364z M68.627,124.465h15.237v59.667H68.627V124.465z"/>
						</g>
					</g>
				</g>
				<g>
					<g>
						<g>
							<path class="st8" d="M186.548,189.133c1.381,0,2.5-1.119,2.5-2.5V97.14c0-1.381-1.119-2.5-2.5-2.5h-20.237
								c-1.381,0-2.5,1.119-2.5,2.5v89.493c0,1.381,1.119,2.5,2.5,2.5H186.548z M168.811,99.64h15.237v84.493h-15.237V99.64z"/>
						</g>
					</g>
				</g>
			</g>
			<g>
				<g>
					<g>
						<g>
							<g>
								<path class="st9" d="M102.022,185.633h15.237c0.828,0,1.5-0.672,1.5-1.5v-38.202c0-0.828-0.672-1.5-1.5-1.5h-15.237
									c-0.828,0-1.5,0.672-1.5,1.5v38.202C100.522,184.961,101.194,185.633,102.022,185.633z M102.022,145.931h15.237v38.202
									h-15.237V145.931z"/>
								<path class="st9" d="M119.759,189.133c1.381,0,2.5-1.119,2.5-2.5v-43.202c0-1.381-1.119-2.5-2.5-2.5H99.522
									c-1.381,0-2.5,1.119-2.5,2.5v43.202c0,1.381,1.119,2.5,2.5,2.5H119.759z M98.522,186.633v-43.202c0-0.551,0.449-1,1-1
									h20.237c0.551,0,1,0.449,1,1v43.202c0,0.551-0.449,1-1,1H99.522C98.971,187.633,98.522,187.184,98.522,186.633z"/>
							</g>
						</g>
					</g>
				</g>
				<g>
					<g>
						<g>
							<g>
								<path class="st9" d="M135.416,185.633h15.237c0.828,0,1.5-0.672,1.5-1.5V99.64c0-0.828-0.672-1.5-1.5-1.5h-15.237
									c-0.828,0-1.5,0.672-1.5,1.5v84.493C133.916,184.961,134.588,185.633,135.416,185.633z M135.416,99.64h15.237v84.493
									h-15.237V99.64z"/>
								<path class="st9" d="M153.153,189.133c1.381,0,2.5-1.119,2.5-2.5V97.14c0-1.381-1.119-2.5-2.5-2.5h-20.237
									c-1.381,0-2.5,1.119-2.5,2.5v89.493c0,1.381,1.119,2.5,2.5,2.5H153.153z M131.916,186.633V97.14c0-0.551,0.449-1,1-1h20.237
									c0.551,0,1,0.449,1,1v89.493c0,0.551-0.449,1-1,1h-20.237C132.365,187.633,131.916,187.184,131.916,186.633z"/>
							</g>
						</g>
					</g>
				</g>
				<g>
					<g>
						<g>
							<g>
								<path class="st9" d="M86.364,189.133c1.381,0,2.5-1.119,2.5-2.5v-64.667c0-1.381-1.119-2.5-2.5-2.5H66.127
									c-1.381,0-2.5,1.119-2.5,2.5v64.667c0,1.381,1.119,2.5,2.5,2.5H86.364z M65.127,186.633v-64.667c0-0.551,0.449-1,1-1h20.237
									c0.551,0,1,0.449,1,1v64.667c0,0.551-0.449,1-1,1H66.127C65.576,187.633,65.127,187.184,65.127,186.633z"/>
								<path class="st9" d="M68.627,185.633h15.237c0.828,0,1.5-0.672,1.5-1.5v-59.667c0-0.828-0.672-1.5-1.5-1.5H68.627
									c-0.828,0-1.5,0.672-1.5,1.5v59.667C67.127,184.961,67.799,185.633,68.627,185.633z M68.627,124.465h15.237v59.667H68.627
									V124.465z"/>
							</g>
						</g>
					</g>
				</g>
				<g>
					<g>
						<g>
							<g>
								<path class="st9" d="M186.548,189.133c1.381,0,2.5-1.119,2.5-2.5V97.14c0-1.381-1.119-2.5-2.5-2.5h-20.237
									c-1.381,0-2.5,1.119-2.5,2.5v89.493c0,1.381,1.119,2.5,2.5,2.5H186.548z M165.311,186.633V97.14c0-0.551,0.449-1,1-1h20.237
									c0.551,0,1,0.449,1,1v89.493c0,0.551-0.449,1-1,1h-20.237C165.759,187.633,165.311,187.184,165.311,186.633z"/>
								<path class="st9" d="M168.811,185.633h15.237c0.828,0,1.5-0.672,1.5-1.5V99.64c0-0.828-0.672-1.5-1.5-1.5h-15.237
									c-0.828,0-1.5,0.672-1.5,1.5v84.493C167.311,184.961,167.982,185.633,168.811,185.633z M168.811,99.64h15.237v84.493
									h-15.237V99.64z"/>
							</g>
						</g>
					</g>
				</g>
			</g>
			<g>
				<g>
					<g>
						<path class="st2" d="M52.368,66.867c-1.381,0-2.5,1.119-2.5,2.5v117.266c0,1.381,1.119,2.5,2.5,2.5h151.264
							c1.381,0,2.5-1.119,2.5-2.5s-1.119-2.5-2.5-2.5H54.868V69.367C54.868,67.986,53.749,66.867,52.368,66.867z"/>
					</g>
				</g>
			</g>
		</g>
		<g>
			<g>
				<g>
					<path class="st2" d="M168.247,76.544c0.425,0.283,0.905,0.418,1.381,0.418c0.81,0,1.604-0.393,2.085-1.118
						c0.764-1.15,0.45-2.702-0.7-3.465l-19.816-13.158c-1.148-0.764-2.702-0.451-3.466,0.7c-0.764,1.15-0.45,2.702,0.7,3.465
						L168.247,76.544z"/>
				</g>
			</g>
		</g>
		<g>
			<g>
				<g>
					<path class="st2" d="M113.217,120.433c0.926,0,1.816-0.517,2.249-1.404l26.195-53.706c0.605-1.241,0.09-2.738-1.151-3.343
						c-1.238-0.604-2.736-0.09-3.343,1.151l-26.195,53.706c-0.605,1.241-0.09,2.738,1.151,3.343
						C112.476,120.351,112.849,120.433,113.217,120.433z"/>
				</g>
			</g>
		</g>
		<g>
			<g>
				<g>
					<path class="st2" d="M103.43,122.475c0.707,0,1.409-0.298,1.904-0.878c0.896-1.051,0.77-2.628-0.281-3.524l-20.977-17.88
						c-1.05-0.895-2.628-0.77-3.524,0.281c-0.896,1.051-0.77,2.628,0.281,3.524l20.977,17.88
						C102.28,122.279,102.856,122.475,103.43,122.475z"/>
				</g>
			</g>
		</g>
		<g>
			<g>
				<g>
					<g>
						<path class="st3" d="M168.247,76.544c0.425,0.283,0.905,0.418,1.381,0.418c0.81,0,1.604-0.393,2.085-1.118
							c0.764-1.15,0.45-2.702-0.7-3.465l-19.816-13.158c-0.425-0.282-0.905-0.418-1.38-0.418c-0.809,0-1.604,0.392-2.085,1.117
							c-0.764,1.15-0.45,2.702,0.7,3.465L168.247,76.544z M148.98,60.75c0.186-0.28,0.498-0.447,0.836-0.447
							c0.196,0,0.386,0.058,0.551,0.167l19.817,13.158c0.223,0.148,0.374,0.373,0.427,0.635c0.053,0.262,0.001,0.528-0.147,0.751
							c-0.186,0.28-0.498,0.447-0.835,0.447c-0.196,0-0.386-0.058-0.551-0.168L149.26,62.136c-0.223-0.148-0.374-0.373-0.427-0.635
							C148.78,61.24,148.832,60.973,148.98,60.75z"/>
					</g>
				</g>
			</g>
		</g>
		<g>
			<g>
				<g>
					<g>
						<path class="st3" d="M113.217,120.433c0.926,0,1.816-0.517,2.249-1.404l26.195-53.706c0.605-1.241,0.09-2.738-1.151-3.343
							c-0.352-0.172-0.725-0.253-1.092-0.253c-0.925,0-1.816,0.516-2.25,1.404l-26.195,53.706c-0.605,1.241-0.09,2.738,1.151,3.343
							C112.476,120.351,112.849,120.433,113.217,120.433z M112.32,117.494l26.195-53.705c0.169-0.347,0.516-0.562,0.903-0.562
							c0.151,0,0.297,0.034,0.434,0.101c0.24,0.117,0.421,0.321,0.508,0.574c0.087,0.252,0.07,0.524-0.047,0.764l-26.195,53.706
							c-0.169,0.347-0.514,0.562-0.901,0.562c-0.151,0-0.299-0.034-0.436-0.101C112.285,118.589,112.078,117.989,112.32,117.494z"/>
					</g>
				</g>
			</g>
		</g>
		<g>
			<g>
				<g>
					<g>
						<path class="st3" d="M103.43,122.475c0.707,0,1.409-0.298,1.904-0.878c0.896-1.051,0.77-2.628-0.281-3.524l-20.977-17.88
							c-0.47-0.401-1.047-0.597-1.62-0.597c-0.707,0-1.409,0.298-1.904,0.878c-0.896,1.051-0.77,2.628,0.281,3.524l20.977,17.88
							C102.28,122.279,102.856,122.475,103.43,122.475z M81.693,101.446c0.19-0.223,0.469-0.351,0.763-0.351
							c0.168,0,0.416,0.041,0.647,0.239l20.977,17.88c0.42,0.358,0.47,0.991,0.113,1.41c-0.191,0.224-0.469,0.352-0.762,0.352
							c-0.168,0-0.416-0.042-0.648-0.239l-20.977-17.88C81.386,102.498,81.335,101.866,81.693,101.446z"/>
					</g>
				</g>
			</g>
		</g>
		<g>
			<g>
				<g>
					<g>
						<path class="st3" d="M52.368,66.867c-1.381,0-2.5,1.119-2.5,2.5v117.266c0,1.381,1.119,2.5,2.5,2.5h151.264
							c1.381,0,2.5-1.119,2.5-2.5s-1.119-2.5-2.5-2.5H54.868V69.367C54.868,67.986,53.749,66.867,52.368,66.867z M203.632,185.633
							c0.551,0,1,0.449,1,1s-0.449,1-1,1H52.368c-0.551,0-1-0.449-1-1V69.367c0-0.551,0.449-1,1-1s1,0.449,1,1v114.766
							c0,0.828,0.672,1.5,1.5,1.5H203.632z"/>
					</g>
				</g>
			</g>
		</g>
		<g>
			<g>
				<g>
					<path class="st4" d="M86.909,96.803c0-5.88-4.783-10.663-10.663-10.663s-10.663,4.783-10.663,10.663
						c0,5.879,4.783,10.663,10.663,10.663S86.909,102.682,86.909,96.803z M70.583,96.803c0-3.123,2.541-5.663,5.663-5.663
						s5.663,2.541,5.663,5.663s-2.541,5.663-5.663,5.663S70.583,99.925,70.583,96.803z"/>
				</g>
			</g>
		</g>
		<g>
			<g>
				<g>
					<path class="st4" d="M120.303,125.268c0-5.88-4.783-10.663-10.663-10.663c-5.879,0-10.663,4.783-10.663,10.663
						s4.783,10.663,10.663,10.663C115.52,135.931,120.303,131.148,120.303,125.268z M103.978,125.268
						c0-3.123,2.54-5.663,5.663-5.663s5.663,2.541,5.663,5.663s-2.541,5.663-5.663,5.663S103.978,128.391,103.978,125.268z"/>
				</g>
			</g>
		</g>
		<g>
			<g>
				<g>
					<path class="st4" d="M153.62,56.88c0-5.88-4.783-10.663-10.663-10.663S132.294,51,132.294,56.88s4.783,10.663,10.663,10.663
						S153.62,62.76,153.62,56.88z M137.294,56.88c0-3.123,2.54-5.663,5.663-5.663s5.663,2.541,5.663,5.663s-2.54,5.663-5.663,5.663
						S137.294,60.002,137.294,56.88z"/>
				</g>
			</g>
		</g>
		<g>
			<g>
				<g>
					<path class="st4" d="M187.093,78.977c0-5.88-4.783-10.663-10.663-10.663s-10.663,4.783-10.663,10.663
						S170.55,89.64,176.43,89.64S187.093,84.856,187.093,78.977z M170.767,78.977c0-3.123,2.54-5.663,5.663-5.663
						s5.663,2.541,5.663,5.663s-2.54,5.663-5.663,5.663S170.767,82.099,170.767,78.977z"/>
				</g>
			</g>
		</g>
		<g>
			<g>
				<g>
					<g>
						<path class="st5" d="M86.909,96.803c0-5.88-4.783-10.663-10.663-10.663s-10.663,4.783-10.663,10.663
							c0,5.879,4.783,10.663,10.663,10.663S86.909,102.682,86.909,96.803z M67.083,96.803c0-5.052,4.111-9.163,9.163-9.163
							s9.163,4.111,9.163,9.163c0,5.052-4.111,9.163-9.163,9.163S67.083,101.855,67.083,96.803z"/>
						<path class="st5" d="M83.409,96.803c0-3.95-3.213-7.163-7.163-7.163s-7.163,3.213-7.163,7.163
							c0,3.949,3.213,7.163,7.163,7.163S83.409,100.752,83.409,96.803z M70.583,96.803c0-3.123,2.541-5.663,5.663-5.663
							s5.663,2.541,5.663,5.663s-2.541,5.663-5.663,5.663S70.583,99.925,70.583,96.803z"/>
					</g>
				</g>
			</g>
			<g>
				<g>
					<g>
						<path class="st5" d="M120.303,125.268c0-5.88-4.783-10.663-10.663-10.663c-5.879,0-10.663,4.783-10.663,10.663
							s4.783,10.663,10.663,10.663C115.52,135.931,120.303,131.148,120.303,125.268z M100.478,125.268
							c0-5.052,4.11-9.163,9.163-9.163c5.053,0,9.163,4.111,9.163,9.163s-4.111,9.163-9.163,9.163
							C104.588,134.431,100.478,130.321,100.478,125.268z"/>
						<path class="st5" d="M116.803,125.268c0-3.95-3.213-7.163-7.163-7.163c-3.949,0-7.163,3.213-7.163,7.163
							s3.213,7.163,7.163,7.163C113.59,132.431,116.803,129.218,116.803,125.268z M103.978,125.268c0-3.123,2.54-5.663,5.663-5.663
							s5.663,2.541,5.663,5.663s-2.541,5.663-5.663,5.663S103.978,128.391,103.978,125.268z"/>
					</g>
				</g>
			</g>
			<g>
				<g>
					<g>
						<path class="st5" d="M150.12,56.88c0-3.95-3.213-7.163-7.163-7.163s-7.163,3.213-7.163,7.163s3.213,7.163,7.163,7.163
							S150.12,60.83,150.12,56.88z M137.294,56.88c0-3.123,2.54-5.663,5.663-5.663s5.663,2.541,5.663,5.663s-2.54,5.663-5.663,5.663
							S137.294,60.002,137.294,56.88z"/>
						<path class="st5" d="M153.62,56.88c0-5.88-4.783-10.663-10.663-10.663S132.294,51,132.294,56.88s4.783,10.663,10.663,10.663
							S153.62,62.76,153.62,56.88z M133.794,56.88c0-5.052,4.111-9.163,9.163-9.163s9.163,4.111,9.163,9.163
							s-4.111,9.163-9.163,9.163S133.794,61.932,133.794,56.88z"/>
					</g>
				</g>
			</g>
			<g>
				<g>
					<g>
						<path class="st5" d="M187.093,78.977c0-5.88-4.783-10.663-10.663-10.663s-10.663,4.783-10.663,10.663
							S170.55,89.64,176.43,89.64S187.093,84.856,187.093,78.977z M167.267,78.977c0-5.052,4.111-9.163,9.163-9.163
							s9.163,4.111,9.163,9.163s-4.111,9.163-9.163,9.163S167.267,84.029,167.267,78.977z"/>
						<path class="st5" d="M183.593,78.977c0-3.95-3.213-7.163-7.163-7.163s-7.163,3.213-7.163,7.163s3.213,7.163,7.163,7.163
							S183.593,82.926,183.593,78.977z M170.767,78.977c0-3.123,2.54-5.663,5.663-5.663s5.663,2.541,5.663,5.663
							s-2.54,5.663-5.663,5.663S170.767,82.099,170.767,78.977z"/>
					</g>
				</g>
			</g>
		</g>
	</g>
</g>
</svg>
