<?xml version="1.0" encoding="utf-8"?>
<!-- Generator: Adobe Illustrator 18.0.0, SVG Export Plug-In . SVG Version: 6.00 Build 0)  -->
<!DOCTYPE svg PUBLIC "-//W3C//DTD SVG 1.1//EN" "http://www.w3.org/Graphics/SVG/1.1/DTD/svg11.dtd">
<svg version="1.1" id="Icon_Set" xmlns="http://www.w3.org/2000/svg" xmlns:xlink="http://www.w3.org/1999/xlink" x="0px" y="0px"
	 viewBox="0 0 256 256" style="enable-background:new 0 0 256 256;" xml:space="preserve">
<style type="text/css">
	.st0{fill:#4C4372;}
	.st1{fill:#F0C48A;}
	.st2{fill:#FD919E;}
	.st3{fill:#D3E6F8;}
	.st4{fill:#A4CFF2;}
	.st5{fill:#FFFFFF;}
	.st6{fill:#7BABF1;}
	.st7{fill:#E8677D;}
</style>
<g>
	<g>
		<g>
			<circle class="st1" cx="128" cy="128" r="103.5"/>
		</g>
	</g>
	<g>
		<path class="st2" d="M143.569,202.547H87.905v-9.445c0-3.6,2.918-6.517,6.518-6.517h42.63c3.599,0,6.517,2.917,6.517,6.517
			V202.547z"/>
	</g>
	<g>
		<rect x="105.308" y="165.266" class="st7" width="20.86" height="21.319"/>
	</g>
	<g>
		<path class="st7" d="M137.053,186.585h-13.457c3.599,0,6.517,2.917,6.517,6.517v9.445h13.457v-9.445
			C143.569,189.502,140.651,186.585,137.053,186.585z"/>
	</g>
	<g>
		<path class="st6" d="M173.756,165.266H57.719c-4.243,0-7.682-3.439-7.682-7.682V81.135c0-4.242,3.439-7.682,7.682-7.682h116.037
			c4.243,0,7.683,3.439,7.683,7.682v76.449C181.438,161.826,177.999,165.266,173.756,165.266z"/>
	</g>
	<g>
		<path class="st0" d="M173.756,168.266H57.719c-5.89,0-10.682-4.792-10.682-10.682V81.135c0-5.89,4.792-10.682,10.682-10.682
			h116.037c5.891,0,10.683,4.792,10.683,10.682v76.449C184.438,163.474,179.646,168.266,173.756,168.266z M57.719,76.453
			c-2.582,0-4.682,2.1-4.682,4.682v76.449c0,2.582,2.101,4.682,4.682,4.682h116.037c2.582,0,4.683-2.101,4.683-4.682V81.135
			c0-2.582-2.101-4.682-4.683-4.682H57.719z"/>
	</g>
	<g>
		<path class="st0" d="M126.167,189.584h-20.86c-1.657,0-3-1.343-3-3v-21.319c0-1.657,1.343-3,3-3h20.86c1.657,0,3,1.343,3,3v21.319
			C129.168,188.241,127.824,189.584,126.167,189.584z M108.308,183.584h14.86v-15.319h-14.86V183.584z"/>
	</g>
	<g>
		<path class="st0" d="M143.569,205.547H87.905c-1.657,0-3-1.343-3-3v-9.445c0-5.248,4.27-9.517,9.518-9.517h42.63
			c5.247,0,9.517,4.27,9.517,9.517v9.445C146.569,204.204,145.227,205.547,143.569,205.547z M90.905,199.547h49.664v-6.445
			c0-1.939-1.577-3.517-3.517-3.517h-42.63c-1.939,0-3.518,1.578-3.518,3.517V199.547z"/>
	</g>
	<g>
		<rect x="67.902" y="128.627" class="st3" width="15.034" height="21.069"/>
	</g>
	<g>
		<rect x="94.781" y="110.091" class="st3" width="15.034" height="39.605"/>
	</g>
	<g>
		<rect x="121.66" y="119.359" class="st3" width="15.034" height="30.337"/>
	</g>
	<g>
		<rect x="148.539" y="100.822" class="st3" width="15.033" height="48.874"/>
	</g>
	<g>
		<path class="st0" d="M82.937,152.696H67.902c-1.657,0-3-1.343-3-3v-21.069c0-1.657,1.343-3,3-3h15.034c1.657,0,3,1.343,3,3v21.069
			C85.937,151.353,84.593,152.696,82.937,152.696z M70.902,146.696h9.034v-15.069h-9.034V146.696z"/>
	</g>
	<g>
		<path class="st0" d="M109.815,152.696H94.781c-1.657,0-3-1.343-3-3v-39.605c0-1.657,1.343-3,3-3h15.034c1.657,0,3,1.343,3,3
			v39.605C112.815,151.353,111.472,152.696,109.815,152.696z M97.781,146.696h9.034v-33.605h-9.034V146.696z"/>
	</g>
	<g>
		<path class="st0" d="M136.693,152.696H121.66c-1.657,0-3-1.343-3-3v-30.337c0-1.657,1.343-3,3-3h15.034c1.657,0,3,1.343,3,3
			v30.337C139.693,151.353,138.351,152.696,136.693,152.696z M124.66,146.696h9.034v-24.337h-9.034V146.696z"/>
	</g>
	<g>
		<path class="st0" d="M163.572,152.696h-15.033c-1.657,0-3-1.343-3-3v-48.874c0-1.657,1.343-3,3-3h15.033c1.657,0,3,1.343,3,3
			v48.874C166.572,151.353,165.229,152.696,163.572,152.696z M151.539,146.696h9.033v-42.874h-9.033V146.696z"/>
	</g>
	<g>
		<path class="st0" d="M75.422,114.145c-0.99,0-1.958-0.489-2.531-1.385c-0.892-1.396-0.484-3.251,0.912-4.144l26.878-17.182
			c0.888-0.567,2.006-0.628,2.95-0.159l25.129,12.479l25.376-21.097c1.275-1.061,3.166-0.885,4.225,0.389
			c1.06,1.274,0.886,3.166-0.389,4.225l-26.879,22.347c-0.912,0.76-2.188,0.909-3.252,0.38l-25.359-12.593l-25.448,16.268
			C76.535,113.992,75.975,114.145,75.422,114.145z"/>
	</g>
	<g>
		<path class="st4" d="M181.399,202.547L181.399,202.547c-3.526,0-6.384-2.858-6.384-6.384v-37.664h12.768v37.664
			C187.783,199.689,184.925,202.547,181.399,202.547z"/>
	</g>
	<g>
		<path class="st0" d="M181.399,205.547c-5.174,0-9.384-4.209-9.384-9.384V158.5c0-1.657,1.343-3,3-3h12.768c1.657,0,3,1.343,3,3
			v37.664C190.783,201.337,186.573,205.547,181.399,205.547z M178.016,161.5v34.664c0,1.866,1.518,3.384,3.384,3.384
			s3.384-1.518,3.384-3.384V161.5H178.016z"/>
	</g>
	<g>
		<circle class="st3" cx="181.399" cy="146.804" r="24.564"/>
	</g>
	<g>
		<circle class="st5" cx="181.399" cy="146.804" r="15.351"/>
	</g>
	<g>
		<path class="st0" d="M181.399,174.368c-15.199,0-27.564-12.365-27.564-27.564s12.365-27.563,27.564-27.563
			c15.198,0,27.563,12.365,27.563,27.563S196.598,174.368,181.399,174.368z M181.399,125.24c-11.891,0-21.564,9.673-21.564,21.563
			c0,11.891,9.674,21.564,21.564,21.564s21.563-9.673,21.563-21.564C202.963,134.914,193.29,125.24,181.399,125.24z"/>
	</g>
	<g>
		<path class="st0" d="M181.399,165.154c-10.118,0-18.351-8.232-18.351-18.351s8.232-18.351,18.351-18.351
			s18.351,8.232,18.351,18.351S191.518,165.154,181.399,165.154z M181.399,134.453c-6.811,0-12.351,5.541-12.351,12.351
			s5.54,12.351,12.351,12.351s12.351-5.541,12.351-12.351S188.21,134.453,181.399,134.453z"/>
	</g>
</g>
</svg>
